<svg id="Layer_1" data-name="Layer 1" xmlns="http://www.w3.org/2000/svg" xmlns:xlink="http://www.w3.org/1999/xlink" viewBox="0 0 1930 398"><defs><style>.cls-1{fill:url(#linear-gradient);}</style><linearGradient id="linear-gradient" x1="965" y1="390.46" x2="965" y2="7.54" gradientUnits="userSpaceOnUse"><stop offset="0" stop-color="#f0f"/><stop offset="0.53" stop-color="#fcee21"/><stop offset="0.59" stop-color="#fbe621"/><stop offset="0.68" stop-color="#facf22"/><stop offset="0.8" stop-color="#f7aa22"/><stop offset="0.93" stop-color="#f37823"/><stop offset="1" stop-color="#f15a24"/></linearGradient></defs><title>header_sun</title><path class="cls-1" d="M1068.67,369.94a194.66,194.66,0,0,1-44.42,20.52H905.75a194.66,194.66,0,0,1-44.42-20.52ZM816.89,332a195.06,195.06,0,0,0,20.65,20.51h254.92A195.06,195.06,0,0,0,1113.11,332ZM792.66,297a195.93,195.93,0,0,0,12.85,20.51h319A195.93,195.93,0,0,0,1137.34,297ZM778.6,264.34a194,194,0,0,0,8,20.51h356.82a194,194,0,0,0,8-20.51ZM771.32,234a195.33,195.33,0,0,0,4.34,20.51h378.68a195.33,195.33,0,0,0,4.34-20.51ZM769,205.84a198.24,198.24,0,0,0,1.3,20.51h389.4a198.24,198.24,0,0,0,1.3-20.51ZM965,7.54c-107.5,0-194.78,86.53-196,193.74h392C1159.78,94.07,1072.5,7.54,965,7.54Z"/></svg>