<svg id="Layer_1" data-name="Layer 1" xmlns="http://www.w3.org/2000/svg" xmlns:xlink="http://www.w3.org/1999/xlink" viewBox="0 0 1930 398"><defs><style>.cls-1{fill:url(#linear-gradient);}</style><linearGradient id="linear-gradient" x1="965" y1="390.46" x2="965" y2="7.54" gradientUnits="userSpaceOnUse"><stop offset="0" stop-color="#f0f"/><stop offset="0.53" stop-color="#fcee21"/><stop offset="0.59" stop-color="#fbe621"/><stop offset="0.68" stop-color="#facf22"/><stop offset="0.8" stop-color="#f7aa22"/><stop offset="0.93" stop-color="#f37823"/><stop offset="1" stop-color="#f15a24"/></linearGradient></defs><title>header_lkdsun</title><path class="cls-1" d="M861.33,369.94a194.66,194.66,0,0,0,44.42,20.52h118.5a194.66,194.66,0,0,0,44.42-20.52Zm112.12,0c-1.55,1.82-2.4,2.85-2.4,2.85a239.67,239.67,0,0,0,35.47-2.85ZM816.89,332a195.06,195.06,0,0,0,20.65,20.51h254.92A195.06,195.06,0,0,0,1113.11,332Zm156.56,38c-1.55,1.82-2.4,2.85-2.4,2.85a239.67,239.67,0,0,0,35.47-2.85ZM792.66,297a195.93,195.93,0,0,0,12.85,20.51h319A195.93,195.93,0,0,0,1137.34,297Zm165.23-54.33-2.48,2-2.69,9.73h8.69Zm0,0-2.48,2-2.69,9.73h8.69Zm0,0-2.48,2-2.69,9.73h8.69Zm0,0-2.48,2-2.69,9.73h8.69Zm0,0-2.48,2-2.69,9.73h8.69ZM778.6,264.34a194,194,0,0,0,8,20.51h356.82a194,194,0,0,0,8-20.51Zm179.29-21.66-2.48,2-2.69,9.73h8.69Zm0,0-2.48,2-2.69,9.73h8.69Zm0,0-2.48,2-2.69,9.73h8.69Zm0,0-2.48,2-2.69,9.73h8.69Zm0,0-2.48,2-2.69,9.73h8.69Zm80.42-8.73-5.7,20.51h9.44c3-2.85,5.5-8.26,8.3-18.13.23-.82.45-1.62.64-2.38Zm35,0c-.27,1.36-.61,2.78-1,4.25-1.95,6.84-4.5,12.19-8,16.26h90a195.33,195.33,0,0,0,4.34-20.51Zm-96.94,0L983,253.32c.13.41.28.78.42,1.14h27.5l5.82-20.51Zm-18.53,8.73-2.48,2-2.69,9.73h8.69ZM889.48,234l-5.83,20.51h10.2c.26-.27.53-.57.8-.9l5.92-7c2-2.48,3.86-3.61,6.77-3.61,3.86,0,5.58,2,4.63,5.48l-1.7,6.05h20.82L936.9,234Zm-118.16,0a195.33,195.33,0,0,0,4.34,20.51h86.51L868,234Zm205.1,0L983,253.32c.13.41.28.78.42,1.14h27.5l5.82-20.51Zm-86.94,0-5.83,20.51h10.2c.26-.27.53-.57.8-.9l5.92-7c2-2.48,3.86-3.61,6.77-3.61,3.86,0,5.58,2,4.63,5.48l-1.7,6.05h20.82L936.9,234Zm86.94,0L983,253.32c.13.41.28.78.42,1.14h27.5l5.82-20.51Zm-86.94,0-5.83,20.51h10.2c.26-.27.53-.57.8-.9l5.92-7c2-2.48,3.86-3.61,6.77-3.61,3.86,0,5.58,2,4.63,5.48l-1.7,6.05h20.82L936.9,234Zm86.94,0L983,253.32c.13.41.28.78.42,1.14h27.5l5.82-20.51Zm-86.94,0-5.83,20.51h10.2c.26-.27.53-.57.8-.9l5.92-7c2-2.48,3.86-3.61,6.77-3.61,3.86,0,5.58,2,4.63,5.48l-1.7,6.05h20.82L936.9,234Zm86.94,0L983,253.32c.13.41.28.78.42,1.14h27.5l5.82-20.51Zm-86.94,0-5.83,20.51h10.2c.26-.27.53-.57.8-.9l5.92-7c2-2.48,3.86-3.61,6.77-3.61,3.86,0,5.58,2,4.63,5.48l-1.7,6.05h20.82L936.9,234Zm0,0-5.83,20.51h10.2c.26-.27.53-.57.8-.9l5.92-7c2-2.48,3.86-3.61,6.77-3.61,3.86,0,5.58,2,4.63,5.48l-1.7,6.05h20.82L936.9,234Zm155.82-18.31h-1.91l-3,10.71h12C1053.38,217.6,1050.09,215.64,1045.3,215.64ZM769,205.84a198.24,198.24,0,0,0,1.3,20.51h99.81l2.38-8.41c1.47-5.15-2.4-5.06-1.38-8,.43-1.53,2-2.05,5.09-2.05h20.17c3.06,0,4.35,1.28,3.52,3.25-1.13,2.66-4.38,1.71-5.85,6.77l-2.39,8.41h47.4l2.38-8.41c1.44-5.15-2.42-5.06-1.38-8,.43-1.53,2-2.05,5.06-2.05h20.17c3.1,0,4.39,1.28,3.53,3.25-1.14,2.66-4.39,1.71-5.86,6.77l-2.35,8.41h3.85l17.66-15.28c2.92-2.48,5.15-3.49,7.88-3.49,4.72,0,8.43,3.16,8.43,8.58,0,6.07-4.29,9.94-9,9.94a8.53,8.53,0,0,1-7.39-3.59l-4.61,3.84h41.46l2.39-8.41c1.44-5.15-2.42-5.06-1.38-8,.43-1.53,2-2.05,5.06-2.05h23.18c16.88,0,25.49,6.44,25.91,18.43h85.67a198.24,198.24,0,0,0,1.3-20.51ZM889.48,234l-5.83,20.51h10.2c.26-.27.53-.57.8-.9l5.92-7c2-2.48,3.86-3.61,6.77-3.61,3.86,0,5.58,2,4.63,5.48l-1.7,6.05h20.82L936.9,234Zm0,0-5.83,20.51h10.2c.26-.27.53-.57.8-.9l5.92-7c2-2.48,3.86-3.61,6.77-3.61,3.86,0,5.58,2,4.63,5.48l-1.7,6.05h20.82L936.9,234Zm86.94,0L983,253.32c.13.41.28.78.42,1.14h27.5l5.82-20.51Zm-86.94,0-5.83,20.51h10.2c.26-.27.53-.57.8-.9l5.92-7c2-2.48,3.86-3.61,6.77-3.61,3.86,0,5.58,2,4.63,5.48l-1.7,6.05h20.82L936.9,234Zm86.94,0L983,253.32c.13.41.28.78.42,1.14h27.5l5.82-20.51Zm-86.94,0-5.83,20.51h10.2c.26-.27.53-.57.8-.9l5.92-7c2-2.48,3.86-3.61,6.77-3.61,3.86,0,5.58,2,4.63,5.48l-1.7,6.05h20.82L936.9,234Zm86.94,0L983,253.32c.13.41.28.78.42,1.14h27.5l5.82-20.51Zm-86.94,0-5.83,20.51h10.2c.26-.27.53-.57.8-.9l5.92-7c2-2.48,3.86-3.61,6.77-3.61,3.86,0,5.58,2,4.63,5.48l-1.7,6.05h20.82L936.9,234ZM965.06,7.54H965c-107.5,0-194.77,86.53-196,193.74h392C1159.78,94.09,1072.53,7.57,965.06,7.54ZM965,183c-121.5,0,0-149.73,0-151C965,32,1086.5,183,965,183Zm42.9-29.84c-2.77-23.29-40.53,22.78-40.53,22.78S1010.67,176.44,1007.9,153.16ZM943.09,91.3c6.75,9.9,18.51-29,18.82-30.09C960.81,62.06,936.4,81.49,943.09,91.3Zm64.81,61.86c-2.77-23.29-40.53,22.78-40.53,22.78S1010.67,176.44,1007.9,153.16ZM943.09,91.3c6.75,9.9,18.51-29,18.82-30.09C960.81,62.06,936.4,81.49,943.09,91.3Zm18.82-30.09c-.31,1.08-12.07,40-18.82,30.09S960.81,62.06,961.91,61.21Zm5.46,114.73s37.76-46.07,40.53-22.78S967.37,175.94,967.37,175.94Z"/></svg>