<svg id="Layer_1" data-name="Layer 1" xmlns="http://www.w3.org/2000/svg" viewBox="0 0 1930 398"><defs><style>.cls-1{opacity:0.5;}.cls-2{fill:none;stroke:#29abe2;stroke-miterlimit:10;stroke-width:3px;opacity:0.2;}</style></defs><title>header_city</title><g class="cls-1"><line class="cls-2" x1="-6.02" y1="3.6" x2="1932.48" y2="3.1"/><line class="cls-2" x1="-6.02" y1="14.61" x2="1932.48" y2="14.11"/><line class="cls-2" x1="-6.02" y1="25.62" x2="1932.48" y2="25.12"/><line class="cls-2" x1="-6.02" y1="36.63" x2="1932.48" y2="36.13"/><line class="cls-2" x1="-6.02" y1="47.64" x2="1932.48" y2="47.14"/><line class="cls-2" x1="-6.02" y1="58.65" x2="1932.48" y2="58.15"/><line class="cls-2" x1="-6.02" y1="69.66" x2="1932.48" y2="69.16"/><line class="cls-2" x1="-6.02" y1="80.67" x2="1932.48" y2="80.17"/><line class="cls-2" x1="-6.02" y1="91.68" x2="1932.48" y2="91.18"/><line class="cls-2" x1="-6.02" y1="102.69" x2="1932.48" y2="102.19"/><line class="cls-2" x1="-6.02" y1="113.7" x2="1932.48" y2="113.2"/><line class="cls-2" x1="-6.02" y1="124.71" x2="1932.48" y2="124.21"/><line class="cls-2" x1="-6.02" y1="135.72" x2="1932.48" y2="135.22"/><line class="cls-2" x1="-6.02" y1="146.73" x2="1932.48" y2="146.23"/><line class="cls-2" x1="-6.02" y1="157.75" x2="1932.48" y2="157.24"/><line class="cls-2" x1="-6.02" y1="168.76" x2="1932.48" y2="168.25"/><line class="cls-2" x1="-6.02" y1="179.77" x2="1932.48" y2="179.27"/><line class="cls-2" x1="-6.02" y1="190.78" x2="1932.48" y2="190.28"/><line class="cls-2" x1="-6.02" y1="201.79" x2="1932.48" y2="201.29"/><line class="cls-2" x1="-6.02" y1="212.8" x2="1932.48" y2="212.3"/><line class="cls-2" x1="-6.02" y1="223.81" x2="1932.48" y2="223.31"/><line class="cls-2" x1="-6.02" y1="234.82" x2="1932.48" y2="234.32"/><line class="cls-2" x1="-6.02" y1="245.83" x2="1932.48" y2="245.33"/><line class="cls-2" x1="-6.02" y1="256.84" x2="1932.48" y2="256.34"/><line class="cls-2" x1="-6.02" y1="267.85" x2="1932.48" y2="267.35"/><line class="cls-2" x1="-6.02" y1="278.86" x2="1932.48" y2="278.36"/><line class="cls-2" x1="-6.02" y1="289.87" x2="1932.48" y2="289.37"/><line class="cls-2" x1="-6.02" y1="300.88" x2="1932.48" y2="300.38"/><line class="cls-2" x1="-6.02" y1="311.89" x2="1932.48" y2="311.39"/><line class="cls-2" x1="-6.02" y1="322.9" x2="1932.48" y2="322.4"/><line class="cls-2" x1="-6.02" y1="333.91" x2="1932.48" y2="333.41"/><line class="cls-2" x1="-6.02" y1="344.92" x2="1932.48" y2="344.42"/><line class="cls-2" x1="-6.02" y1="355.93" x2="1932.48" y2="355.43"/><line class="cls-2" x1="-6.02" y1="366.94" x2="1932.48" y2="366.44"/><line class="cls-2" x1="-6.02" y1="377.95" x2="1932.48" y2="377.45"/><line class="cls-2" x1="-6.02" y1="388.96" x2="1932.48" y2="388.46"/><line class="cls-2" x1="-6.02" y1="399.97" x2="1932.48" y2="399.47"/></g><path d="M1424,329l-.14-10.38-.15-11-.15-11-.15-11-.15-11-.14-11L1423,255a12.48,12.48,0,0,0,6.91-2.44c3.48-2.59,5.29-6.87,6.22-11a43.1,43.1,0,0,0,.9-11c0-.35,0-.54,0-.54l5-1v-5h-10l-4-4h-6v-3s3-1,3-3-3-2-3-2h-6v-2s2.63.88,3-1.48a2.82,2.82,0,0,0,0-.52c0-3-3-2-3-2l-.33-8.49-.42-11L1415,180l-.25,6.5-.42,11L1414,206s-3-1-3,2a2.93,2.93,0,0,0,0,.53c.34,2.34,3,1.47,3,1.47v2h-6s-4,0-4,2a3.7,3.7,0,0,0,2,3v3h-4l-4,4h-10v5a43.31,43.31,0,0,0,5,1c0,.19,0,.37,0,.55a36.92,36.92,0,0,0,1.13,11c1.6,5.83,4.63,9.14,7.45,11A14.46,14.46,0,0,0,1408,255l-.28,8.58-.35,11-.36,11-.35,11-.36,11-.35,11-.36,11Z"/><path d="M976,316h15v-7h6v4h3v4h11V300h18v-6h26v-4h62v10h6V289h13v-4h37v3h21v19h15V206l12.37-10.54,12.93-11L1236,183h12v12l.38.45,9.36,11L1265,215v41h44l10.07,5.49L1331,268v10h19v48h14v4h13v7h2v-5h13v-4h63v6h2v54l101-1-.12-4.46-.62-22-.3-11-.31-11-.3-11-.31-11,0-1.48h74v36l58-1,4,8h42l-.14-8.53-.19-11-.18-11-.19-11-.18-11-.19-11-.36-22-.19-11-.18-11-.19-11-.18-11-.19-11-.18-11-.19-11-.18-11L1731,179l13-1a42.65,42.65,0,0,1,2.12-4.71c1.66-3.13,4.11-6.74,6.88-7.29,0,0,2.32,3.25,5,7.29a91.64,91.64,0,0,1,6.37,11A17.05,17.05,0,0,1,1765,186c.74-.59,1.5-1.16,2.28-1.69C1777,177.57,1789,175,1789,175s8,.89,17.73,9.3a63.31,63.31,0,0,1,9.94,11,85.16,85.16,0,0,1,6.71,11,111.42,111.42,0,0,1,4.92,11q1.41,3.63,2.7,7.68h6l.13,3.33.84,22,0,.65h5l.25,10.36.78,33,.27,11,1,44,.27,11,.26,11L1846,377l54,1v8h69v85H-40V412h6v4h12l2,9H-9V396h3V386h4v-4H5v-3H25v6H48v5h6v6h8v-5h6v-6h5V343h2v-7h7V323h52v4h2v5h47v6h1v6h11V320h3l.11-3.17.36-11,.74-22,.36-11,.74-22,.36-11,1.11-33L202,200h10v-5l8.46.72L271,200v12h12v-2h11l.09,7.72.14,11,.13,11,.14,11,.13,11,.14,11,.13,11L295,292l27,2v13h2V296h62v20h3v31h29v38h2V364h5V351h14v-6h21v7h13v6h2v-7h11v7h5v-6h2v6h8v9h3V356h2V342l27-3h22V327h27V299h4V276h4V256h2V240h7v-5l22-22h24l6,6,13.5-13.5H689l1,1.11,9.43,11,9.44,11L710,230v7h9v55h4v-4h41v3h28v35l1.41,1.69L797,332V291l4.49-7.35L808,273h33V260l24-2,38,2v28h23v4h17v47h5v35h8v-8l.17-5.32.36-11,.35-11,.36-11,.35-12Z"/></svg>